<svg version="1.1" viewBox="0.0 0.0 480.0 480.0" fill="none" stroke="none" stroke-linecap="square" stroke-miterlimit="10" xmlns:xlink="http://www.w3.org/1999/xlink" xmlns="http://www.w3.org/2000/svg"><clipPath id="p.0"><path d="m0 0l480.0 0l0 480.0l-480.0 0l0 -480.0z" clip-rule="nonzero"/></clipPath><g clip-path="url(#p.0)"><path fill="#000000" fill-opacity="0.0" d="m0 0l480.0 0l0 480.0l-480.0 0z" fill-rule="evenodd"/><path fill="#3d575b" d="m0 119.85827l360.14172 0l0 359.5748l-360.14172 0z" fill-rule="evenodd"/><path fill="#304548" d="m360.14172 119.85827l119.85828 -119.85827l0 359.5748l-119.85828 119.85828z" fill-rule="evenodd"/><path fill="#63787b" d="m0 119.85827l119.85827 -119.85827l360.14172 0l-119.85828 119.85827z" fill-rule="evenodd"/><path fill="#000000" fill-opacity="0.0" d="m0 119.85827l119.85827 -119.85827l360.14172 0l0 359.5748l-119.85828 119.85828l-360.14172 0zm0 0l360.14172 0l119.85828 -119.85827m-119.85828 119.85827l0 359.5748" fill-rule="evenodd"/></g></svg>